<?xml version="1.0" encoding="utf-8"?>
<!-- Generator: Adobe Illustrator 25.2.3, SVG Export Plug-In . SVG Version: 6.00 Build 0)  -->
<svg version="1.1" id="One_color" xmlns="http://www.w3.org/2000/svg" xmlns:xlink="http://www.w3.org/1999/xlink" x="0px" y="0px"
	 viewBox="0 0 512 512" enable-background="new 0 0 512 512" xml:space="preserve">
<polygon fill="#F9AF0B" points="355.498,429.079 356.138,439.959 285.418,439.959 207.978,439.959 130.538,439.959 59.818,439.959 
	63.178,383.959 132.778,383.959 207.978,383.959 283.178,383.959 352.778,383.959 352.938,386.439 "/>
<path fill="#F9AF0B" d="M340.298,175.959l2.88,48h-66.4h-68.8h-68.8h-37.92c1.76-3.6,2.72-7.68,2.72-12v-44h0.24h37.2h66.56h66.56
	h65.28L340.298,175.959z"/>
<path fill="#4D4D4D" d="M132.4,71.115c1.148,0.57,2.371,0.844,3.57,0.844c2.938,0,5.762-1.617,7.164-4.422
	c0.043-0.102,5.121-9.727,22.312-3.992c4.215,1.414,8.727-0.867,10.121-5.055c1.398-4.195-0.867-8.727-5.059-10.117
	c-24.195-8.062-37.844,4.328-41.688,12.008C126.846,64.334,128.447,69.139,132.4,71.115z"/>
<path fill="#4D4D4D" d="M250.51,79.545c16.344-5.438,21.758,3.023,22.379,4.117c1.422,2.727,4.207,4.297,7.098,4.297
	c1.199,0,2.422-0.273,3.57-0.844c3.953-1.977,5.555-6.781,3.578-10.734c-3.84-7.672-17.484-20.078-41.688-12.008
	c-4.191,1.391-6.457,5.922-5.059,10.117C241.783,78.678,246.307,80.943,250.51,79.545z"/>
<path fill="#4D4D4D" d="M344.268,54.443c-5.547-8.414-14.559-13.195-26.836-14.258c-3.707-8.047-12.418-23.047-27.73-28.711
	c-10.242-3.797-21.273-2.805-32.863,2.906c-7.531-5.398-23.855-14.422-48.859-14.422s-41.328,9.023-48.859,14.422
	c-11.594-5.711-22.625-6.695-32.863-2.906c-15.324,5.664-24.035,20.688-27.738,28.727c-21.984,1.992-39.234,16.195-50.105,41.367
	c-5.598,12.953-8.434,27.523-8.434,43.297v87.094c0,15.453,9.785,28.656,23.48,33.758L49.01,486.521
	c-0.395,6.578,1.969,13.102,6.488,17.891c4.516,4.797,10.883,7.547,17.469,7.547H342.99c6.586,0,12.953-2.75,17.469-7.547
	c4.52-4.789,6.883-11.312,6.488-17.891l-3.125-52.083l82.652-32.143c15.492-6.016,25.504-20.656,25.504-37.281V167.959
	c0-22.055-17.945-40-40-40h-86.546l-1.36-22.672C347.01,97.74,355.709,71.795,344.268,54.443z M55.978,211.959v-87.094
	c0-13.578,2.395-26.016,7.121-36.953c9.156-21.203,22.91-31.953,40.879-31.953c3.426,0,6.48-2.203,7.582-5.445
	c0.066-0.195,6.602-19.031,20.301-24.055c2.184-0.805,4.488-1.203,6.902-1.203c5.203,0,10.926,1.859,17.098,5.562
	c3.113,1.867,7.129,1.367,9.73-1.156c0.578-0.562,14.457-13.703,42.387-13.703s41.809,13.141,42.344,13.656
	c2.594,2.586,6.629,3.094,9.773,1.203c9.035-5.422,17.109-6.867,24-4.359c13.699,5.023,20.234,23.859,20.293,24.031
	c1.09,3.266,4.145,5.469,7.59,5.469c9.492,0,15.684,2.383,18.922,7.273c5.621,8.5,2.461,23.719-0.484,32.727H143.978
	c-26.469,0-48,21.531-48,48v68c0,11.031-8.973,20-20,20S55.978,222.99,55.978,211.959z M199.978,447.959v48h-63.675l1.919-48
	H199.978z M215.978,447.959h61.756l1.919,48h-63.675V447.959z M68.311,431.959l2.401-40h274.535l2.4,40H68.311z M264.293,111.959
	l1.919,48h-50.234v-48H264.293z M331.324,159.959h-49.102l-1.919-48h48.14L331.324,159.959z M199.978,159.959h-50.234l1.919-48
	h48.315V159.959z M133.735,159.959h-5.756c-4.418,0-8,3.578-8,8s3.582,8,8,8h204.306l2.4,40H111.598
	c0.149-1.328,0.381-2.633,0.381-4v-68c0-14.731,10.056-27.039,23.625-30.747L133.735,159.959z M290.862,375.959l-0.653-16.32
	c-0.176-4.406-3.82-7.984-8.312-7.672c-4.414,0.172-7.852,3.898-7.672,8.312l0.628,15.68h-58.874v-144h53.116l3.853,96.32
	c0.172,4.305,3.715,7.68,7.988,7.68c0.105,0,0.215,0,0.324-0.008c4.414-0.172,7.852-3.898,7.672-8.312l-3.827-95.68h50.54l8.642,144
	H290.862z M141.104,375.959l5.759-144h53.116v144H141.104z M105.8,231.959h25.053l-5.759,144H71.672l7.693-128.156
	C90.393,246.77,99.924,240.69,105.8,231.959z M348.793,183.959h67.186V351.67l-55.739,23.053L348.793,183.959z M67.143,493.443
	c-1.527-1.625-2.297-3.742-2.164-5.969l2.372-39.516h54.862l-1.919,48H72.967C70.74,495.959,68.67,495.068,67.143,493.443z
	 M348.814,493.443c-1.527,1.625-3.598,2.516-5.824,2.516h-47.327l-1.919-48h54.862l2.372,39.516
	C351.111,489.701,350.342,491.818,348.814,493.443z M431.978,143.959c13.234,0,24,10.766,24,24v197.055
	c0,9.977-6.008,18.758-15.301,22.375l-77.862,30.28l-1.563-26.054l60.851-25.164c6-2.492,9.875-8.297,9.875-14.789V183.959
	c0-8.82-7.176-16-16-16h-68.146l-1.44-24H431.978z"/>
</svg>
